<svg width="212" height="112" viewBox="0 0 212 112" fill="none" xmlns="http://www.w3.org/2000/svg">
<path d="M18 0.5H193.999C200.35 0.5 205.499 5.64873 205.499 12V104H6.5V12C6.5 5.64873 11.6487 0.5 18 0.5Z" fill="#18191B" stroke="#262729"/>
<path fill-rule="evenodd" clip-rule="evenodd" d="M73.657 37C89.8935 37 91.8617 37.0092 92.5262 37.1476C92.9376 37.2214 93.5499 37.3968 93.8825 37.5167C94.2237 37.6459 94.7486 37.895 95.0633 38.0795C95.3784 38.2641 95.868 38.6055 96.157 38.8454C96.4456 39.0853 96.883 39.5282 97.1193 39.8234C97.3639 40.1187 97.7225 40.6723 97.9328 41.0598C98.1339 41.4382 98.3963 42.0656 98.5099 42.4439C98.6327 42.8222 98.755 43.3574 98.7989 43.6249C98.8337 43.8925 98.8951 44.1047 98.9386 44.1047C98.9739 44.1047 99 44.483 99 44.9352C99 45.4242 98.9652 45.7656 98.9125 45.7656C98.869 45.7656 98.825 45.8948 98.825 46.0424C98.825 46.19 98.7636 46.6237 98.694 46.9835C98.624 47.3526 98.5012 47.8878 98.4224 48.1646C98.3441 48.4414 98.029 49.2165 97.7225 49.8716C97.4166 50.5267 96.9004 51.4494 96.5766 51.9107C96.2445 52.3813 95.6321 53.1656 95.1947 53.6639C94.766 54.1713 93.8999 55.1217 93.2701 55.786C92.6316 56.4688 91.8703 57.1793 91.5204 57.41C91.1879 57.6406 90.6369 57.9728 90.2957 58.1481C89.9631 58.3327 89.2722 58.6187 88.7648 58.8032C88.2574 58.9786 87.5314 59.1908 87.1464 59.2738C86.7615 59.3569 85.9742 59.4583 85.3968 59.5137C84.8195 59.5599 83.9359 59.606 82.51 59.6152L82.9911 60.0858C83.2536 60.3441 83.9971 61.0361 84.6445 61.6267C85.2918 62.2172 86.0617 62.9092 86.3503 63.1676C86.6478 63.4352 87.2077 63.9334 87.5926 64.2748C87.9862 64.6254 88.7911 65.3452 89.386 65.8711C89.981 66.4062 90.6282 66.9875 90.8293 67.1628C91.0216 67.3474 91.8003 68.0394 92.5702 68.6945C93.3315 69.3496 94.4862 70.3738 95.142 70.9643C95.7984 71.5456 96.7167 72.3484 97.1889 72.7359C97.653 73.1234 98.0551 73.4925 98.0817 73.5387C98.1078 73.5848 98.1078 73.714 98.0817 73.8155C98.0377 74 97.9676 74 91.6519 74C88.1437 74 85.2656 73.9723 85.2656 73.9262C85.2656 73.8893 85.0031 73.8062 84.6795 73.7417C84.3471 73.677 83.8134 73.4833 83.4723 73.3172C83.1399 73.1511 82.6062 72.8005 82.2913 72.5329C81.9764 72.2653 81.0578 71.4165 80.2355 70.6414C79.422 69.8663 77.9173 68.4454 76.9112 67.4858C75.8965 66.5262 73.7532 64.4778 72.1523 62.9277C70.5427 61.3775 69.0555 59.9751 68.8281 59.809C68.5482 59.5968 68.3295 59.5137 68.102 59.5137C67.9183 59.5137 67.6646 59.5875 67.5334 59.6706C67.3934 59.7536 67.1485 59.9474 66.9823 60.1043C66.816 60.2518 65.5388 61.5436 64.1391 62.9738C62.7482 64.3948 60.9374 66.2309 60.1151 67.0429C59.3015 67.8548 58.1205 69.0174 57.5082 69.6265C56.887 70.2262 55.9685 71.1304 55.4523 71.6287C54.9362 72.1269 54.2626 72.7082 53.9477 72.9296C53.6328 73.1604 53.0729 73.4464 52.7055 73.5756C52.3293 73.7047 51.9444 73.8155 51.8482 73.8155C51.7519 73.8155 51.6732 73.8616 51.6732 73.9078C51.6732 73.9723 49.8362 74 41.0006 74V73.6955C40.9919 73.4648 41.0706 73.3265 41.3681 73.0404C41.578 72.8374 42.3916 72.0531 43.1876 71.2873C43.975 70.5214 45.6283 68.8975 46.8618 67.6796C48.0865 66.4708 49.7049 64.8653 50.4485 64.1272C51.1921 63.3891 52.3906 62.1895 53.1166 61.4514C53.8427 60.7132 54.7438 59.7997 55.1287 59.4214C55.5136 59.0431 56.3009 58.2588 56.8783 57.6683C57.4557 57.087 58.8903 55.6292 60.0713 54.4296C61.2523 53.2209 62.372 52.1137 62.5645 51.9476C62.757 51.7908 63.0544 51.6247 63.2206 51.5786C63.4043 51.5232 67.6558 51.4863 73.8932 51.4863C83.9709 51.4863 84.2683 51.477 84.6095 51.3017C84.802 51.2095 85.2131 50.8865 85.5193 50.5913C85.8342 50.296 86.6565 49.3826 87.3564 48.5613C88.065 47.7401 88.7036 46.9466 88.9398 46.5038H76.85C65.5826 46.4945 64.7253 46.4853 64.4278 46.3377C64.2529 46.2546 63.5618 45.6179 62.8969 44.9352C62.2321 44.2524 60.2988 42.2594 58.6016 40.5062C56.8433 38.6885 55.5223 37.2491 55.5223 37.1569C55.5223 37.0092 56.4409 37 73.657 37ZM51.3758 44.6583C51.4545 44.6583 51.5595 44.926 51.682 45.415C51.7869 45.8394 51.9881 46.4945 52.1281 46.8728C52.2681 47.2511 52.5568 47.9155 52.7667 48.3491C52.9767 48.7828 53.3528 49.4102 53.5978 49.7516C53.834 50.1022 54.1664 50.4805 54.3239 50.6005C54.4726 50.7297 54.8225 50.9327 55.085 51.0526C55.3474 51.1818 56.0385 51.4125 56.6159 51.5693C57.1932 51.7354 57.7968 51.9015 57.9543 51.9569C58.1117 52.003 58.2342 52.1045 58.2342 52.1783C58.2342 52.2521 58.1642 52.3167 58.0855 52.3167C57.9981 52.3167 57.4994 52.4182 56.9658 52.5474C56.4409 52.6765 55.6273 52.898 55.1724 53.0548C54.7175 53.2025 54.1314 53.4701 53.8865 53.6546C53.6328 53.8299 53.2566 54.199 53.0554 54.4574C52.8629 54.7249 52.5305 55.3155 52.3206 55.7768C52.1194 56.2382 51.8657 56.8748 51.7607 57.207C51.6557 57.5391 51.4807 58.1574 51.3671 58.591C51.2621 59.0247 51.1396 59.3845 51.0959 59.403C51.0521 59.4122 50.9209 58.914 50.8072 58.2957C50.6934 57.6683 50.5272 56.9486 50.4485 56.6995C50.3698 56.4412 50.1948 56.0167 50.0636 55.7491C49.9411 55.4908 49.5737 54.9925 49.25 54.6419C48.9001 54.2821 48.454 53.913 48.174 53.7746C47.9116 53.6361 47.3167 53.4239 46.8618 53.2948C46.4069 53.1748 45.7421 53.0179 45.3921 52.9441C44.8585 52.8426 44.7623 52.7965 44.7623 52.6396C44.7623 52.4828 44.9285 52.409 45.917 52.123C46.5556 51.9384 47.3605 51.6708 47.6929 51.5324C48.034 51.3848 48.4802 51.1449 48.6989 50.988C48.9176 50.8312 49.215 50.5544 49.3725 50.3791C49.53 50.2038 49.7749 49.8254 49.9149 49.5486C50.0549 49.2718 50.2735 48.7551 50.396 48.3953C50.5185 48.0354 50.7109 47.3157 50.8334 46.7805C50.9471 46.2454 51.0871 45.5534 51.1484 45.2304C51.2183 44.8613 51.2971 44.6583 51.3758 44.6583Z" fill="#404246"/>
<path d="M92 0H120V4C120 6.20914 118.209 8 116 8H96C93.7909 8 92 6.20914 92 4V0Z" fill="#404246"/>
<rect y="104" width="212" height="8" rx="2" fill="#404246"/>
<rect x="107" y="48" width="64" height="8" rx="4" fill="#404246"/>
<rect x="107" y="61" width="38" height="6" rx="3" fill="#404246"/>
</svg>
