<svg width="196" height="112" viewBox="0 0 196 112" fill="none" xmlns="http://www.w3.org/2000/svg">
<path d="M12 0.5H64C70.3513 0.500016 75.5 5.64874 75.5 12V112.5H0.5V12C0.500012 5.6488 5.64882 0.500103 12 0.5Z" fill="#18191B" stroke="#262729"/>
<rect x="24" y="6" width="28" height="8" rx="4" fill="#404246"/>
<rect x="10" y="34" width="56" height="8" rx="4" fill="#404246"/>
<rect x="19" y="47" width="38" height="6" rx="3" fill="#404246"/>
<path d="M58 28.5H184C190.351 28.5 195.5 33.6487 195.5 40V112.5H46.5V40C46.5 33.6489 51.6489 28.5002 58 28.5Z" fill="#18191B" stroke="#262729"/>
<rect x="88" y="55" width="64" height="8" rx="4" fill="#404246"/>
<rect x="101" y="68" width="38" height="6" rx="3" fill="#404246"/>
<path d="M106 28H134V32C134 34.2091 132.209 36 130 36H110C107.791 36 106 34.2091 106 32V28Z" fill="#404246"/>
</svg>
