<svg width="24" height="24" viewBox="0 0 24 24" fill="none" xmlns="http://www.w3.org/2000/svg">
<path d="M12.0512 5.26972C11.9264 4.77225 11.8194 4.5 11.7393 4.5C11.659 4.5 11.5788 4.70651 11.5075 5.08199C11.4451 5.41054 11.3024 6.11451 11.1865 6.65895C11.0617 7.2034 10.8656 7.93558 10.7408 8.30167C10.616 8.6677 10.3932 9.19338 10.2506 9.47496C10.1079 9.75659 9.85831 10.1414 9.69785 10.3198C9.53738 10.4982 9.23429 10.7797 9.01147 10.9393C8.7886 11.0989 8.33396 11.3429 7.98629 11.4932C7.64758 11.6339 6.82743 11.9062 6.17671 12.0939C5.16937 12.3849 5 12.46 5 12.6195C5 12.7791 5.09806 12.826 5.64184 12.9293C5.99841 13.0044 6.67588 13.164 7.13944 13.286C7.603 13.4174 8.20915 13.6333 8.47659 13.7741C8.76186 13.9149 9.21646 14.2904 9.57304 14.6565C9.90288 15.0131 10.2773 15.52 10.4021 15.7828C10.5358 16.0551 10.7141 16.4869 10.7943 16.7497C10.8745 17.0031 11.0439 17.7353 11.1598 18.3736C11.2757 19.0025 11.4094 19.5094 11.454 19.5C11.4986 19.4812 11.6234 19.1151 11.7303 18.674C11.8462 18.2328 12.0245 17.6039 12.1314 17.266C12.2384 16.928 12.4969 16.2804 12.702 15.811C12.9159 15.3417 13.2546 14.7409 13.4508 14.4687C13.6558 14.2059 14.0391 13.8304 14.2977 13.6521C14.5472 13.4644 15.1445 13.1921 15.6081 13.0419C16.0716 12.8824 16.9006 12.6571 17.4355 12.5257C17.9793 12.3942 18.4874 12.291 18.5765 12.291C18.6567 12.291 18.728 12.2253 18.728 12.1502C18.728 12.0751 18.6032 11.9718 18.4428 11.9249C18.2824 11.8686 17.6672 11.6997 17.0789 11.5307C16.4906 11.3711 15.7864 11.1364 15.5189 11.005C15.2515 10.883 14.8949 10.6765 14.7433 10.5451C14.5829 10.423 14.2442 10.0382 14.0035 9.68146C13.7539 9.33419 13.3705 8.69591 13.1566 8.2547C12.9427 7.81353 12.6485 7.13771 12.5059 6.75285C12.3632 6.36799 12.1582 5.7015 12.0512 5.26972Z" fill="white"/>
</svg>
