<svg width="24" height="24" viewBox="0 0 24 24" fill="none" xmlns="http://www.w3.org/2000/svg">
<path d="M9.48521 8.40314C9.36158 7.91032 9.2556 7.64062 9.17617 7.64062C9.09669 7.64062 9.01721 7.8452 8.94656 8.21716C8.88474 8.54263 8.74344 9.24002 8.62864 9.77937C8.505 10.3187 8.31071 11.044 8.18708 11.4067C8.06344 11.7693 7.84271 12.2901 7.70141 12.569C7.65235 12.6659 7.59052 12.7751 7.52405 12.8837C7.08592 12.8837 6.46507 12.413 6.2094 12.1777C6.06036 12.0256 5.89989 11.8603 5.72715 11.6808C4.96642 10.89 4.299 10.1105 3.73655 9.3635L3.73339 9.35928C3.2101 8.66396 2.78256 8.00317 2.4552 7.39303C2.41408 7.31639 2.37448 7.24044 2.33643 7.16522L2.30382 7.10018C2.28506 7.06243 2.26678 7.02502 2.24896 6.98799C2.1243 6.72867 2.01942 6.47995 1.93469 6.24321C1.85828 6.02973 1.80083 5.83351 1.75965 5.65374C1.62839 5.07847 1.6608 4.65823 1.78634 4.38431C1.85919 4.22536 1.98147 4.07716 2.18814 3.96036C2.33329 3.87844 2.52006 3.81205 2.76062 3.76796C3.36157 3.6578 4.20713 3.71196 5.27155 3.98032L5.28329 3.98319C5.3459 3.99904 5.40923 4.01564 5.47332 4.03296C7.70315 4.63611 10.5835 6.07533 13.5592 8.23951C16.3664 10.2812 18.7033 12.5644 20.2623 14.6344L20.2671 14.6409C20.7199 15.2426 21.1011 15.8184 21.4076 16.358C21.4427 16.4196 21.4767 16.4808 21.5098 16.5415L21.5222 16.5641C21.7521 16.9882 21.9336 17.3875 22.0658 17.7568C22.0821 17.8025 22.0977 17.8476 22.1126 17.8924C22.2099 18.1861 22.27 18.4448 22.3005 18.6708C22.3574 19.0922 22.312 19.402 22.2141 19.6156C22.1289 19.8017 21.9672 19.9813 21.6731 20.1077C21.5525 20.1587 21.4095 20.2009 21.2399 20.2321C20.6389 20.3423 19.7933 20.2881 18.729 20.0197L18.7207 20.0177C18.1261 19.8673 17.4729 19.6527 16.7703 19.3713C16.3397 19.1987 15.8541 19.4163 15.6856 19.8571C15.5171 20.298 15.7296 20.7952 16.1602 20.9676C17.2145 21.39 18.2218 21.696 19.1421 21.8607C19.5073 21.9259 19.859 21.9691 20.1943 21.9883C20.3661 21.9983 20.5335 22.0019 20.6964 21.9991C20.7353 21.9984 20.7743 21.9973 20.8131 21.9959C21.0638 21.9867 21.3051 21.9617 21.5349 21.9195C21.8051 21.8699 22.0665 21.7949 22.3115 21.6913C22.9191 21.4363 23.4259 21.0071 23.7299 20.3439C24.1447 19.4389 24.0399 18.3725 23.6981 17.3415C23.6547 17.2104 23.6067 17.0778 23.5544 16.9439C23.4659 16.7169 23.3649 16.4859 23.2523 16.2519C22.8999 15.5194 22.4337 14.7557 21.8783 13.9818C20.1996 11.643 17.6161 9.08739 14.5288 6.84196C11.4449 4.59903 8.38186 3.0466 5.901 2.37554C4.66623 2.04156 3.5154 1.90924 2.5552 2.06496C2.19797 2.12289 1.85489 2.22388 1.54204 2.37522C0.999219 2.63782 0.547394 3.05204 0.270553 3.65608C-0.0586179 4.37431 -0.0651591 5.19893 0.13139 6.05182C0.191344 6.31261 0.269839 6.57401 0.362543 6.83302C0.467616 7.1266 0.5945 7.42748 0.74151 7.73415C0.776661 7.80749 0.812727 7.88067 0.849641 7.95363C0.946933 8.14595 1.0521 8.34085 1.16483 8.53798C1.22273 8.63928 1.28262 8.7411 1.34447 8.8435C1.46324 9.04008 1.5892 9.2387 1.72206 9.43893C1.84675 9.62682 1.97752 9.8163 2.11411 10.0068C2.78896 10.9485 3.60584 11.9187 4.53433 12.8837C4.84034 13.2018 5.11147 13.479 5.35167 13.7203C5.59186 13.9616 5.72715 14.0721 5.81075 14.4026C5.68976 14.4635 5.56861 14.5207 5.45833 14.5683C5.1228 14.7078 4.31033 14.9775 3.6657 15.1634C2.66779 15.4517 2.5 15.5261 2.5 15.6841C2.5 15.8422 2.59714 15.8887 3.13583 15.991C3.48906 16.0654 4.1602 16.2235 4.61942 16.3444C5.07864 16.4745 5.67911 16.6884 5.94405 16.8279C6.22665 16.9674 6.67699 17.3394 7.03024 17.702C7.35699 18.0553 7.7279 18.5575 7.85149 18.8179C7.98396 19.0876 8.16058 19.5153 8.24006 19.7756C8.31954 20.0267 8.48734 20.752 8.60214 21.3843C8.71695 22.0074 8.84941 22.5095 8.89357 22.5002C8.93773 22.4816 9.06137 22.119 9.16734 21.6819C9.2821 21.2449 9.45872 20.6218 9.56469 20.2871C9.67067 19.9523 9.92677 19.3107 10.1299 18.8457C10.3418 18.3808 10.6774 17.7857 10.8717 17.516C11.0748 17.2556 11.4545 16.8837 11.7106 16.7071C11.9579 16.5211 12.5495 16.2514 13.0088 16.1026C13.4679 15.9445 14.2892 15.7213 14.8191 15.5912C15.3578 15.461 15.8611 15.3587 15.9494 15.3587C16.0289 15.3587 16.0995 15.2936 16.0995 15.2192C16.0995 15.1448 15.9759 15.0425 15.817 14.996C15.658 14.9403 15.0487 14.7729 14.4659 14.6055C13.883 14.4474 13.1854 14.2149 12.9205 14.0847C12.6555 13.9639 12.3023 13.7593 12.1521 13.6291C11.9932 13.5082 11.6576 13.127 11.4192 12.7736C11.1719 12.4296 10.7922 11.7973 10.5802 11.3602C10.3683 10.9231 10.0769 10.2536 9.93561 9.87238C9.79431 9.49113 9.59119 8.83087 9.48521 8.40314Z" fill="white"/>
</svg>
