<svg width="32" height="20" viewBox="0 0 32 20" fill="none" xmlns="http://www.w3.org/2000/svg">
<path fill-rule="evenodd" clip-rule="evenodd" d="M18.0177 0C26.9757 0 28.0616 0.00498752 28.4283 0.0798006C28.6552 0.119701 28.9931 0.214464 29.1765 0.279303C29.3648 0.349127 29.6544 0.483791 29.828 0.58354C30.0019 0.683292 30.272 0.867829 30.4315 0.997507C30.5907 1.12718 30.832 1.36658 30.9624 1.52618C31.0973 1.68579 31.2952 1.98504 31.4112 2.19451C31.5221 2.399 31.6669 2.73815 31.7296 2.94264C31.7973 3.14714 31.8648 3.43642 31.8891 3.58105C31.9083 3.72567 31.9421 3.84039 31.9661 3.84039C31.9856 3.84039 32 4.04488 32 4.28928C32 4.55361 31.9808 4.73815 31.9517 4.73815C31.9277 4.73815 31.9035 4.80799 31.9035 4.88777C31.9035 4.96758 31.8696 5.20198 31.8312 5.3965C31.7925 5.59601 31.7248 5.88529 31.6813 6.0349C31.6381 6.18455 31.4643 6.6035 31.2952 6.9576C31.1264 7.31171 30.8416 7.81047 30.6629 8.05986C30.4797 8.31421 30.1419 8.73815 29.9005 9.00749C29.664 9.28179 29.1861 9.79551 28.8387 10.1546C28.4864 10.5237 28.0664 10.9077 27.8733 11.0324C27.6899 11.1571 27.3859 11.3367 27.1976 11.4314C27.0141 11.5312 26.6329 11.6858 26.353 11.7855C26.0731 11.8803 25.6725 11.995 25.4601 12.0399C25.2477 12.0848 24.8134 12.1396 24.4948 12.1696C24.1763 12.1945 23.6888 12.2194 22.9021 12.2244L23.1675 12.4788C23.3123 12.6185 23.7226 12.9925 24.0797 13.3117C24.4369 13.6309 24.8616 14.005 25.0209 14.1446C25.185 14.2893 25.4939 14.5586 25.7062 14.7431C25.9234 14.9327 26.3675 15.3217 26.6957 15.606C27.024 15.8953 27.3811 16.2095 27.492 16.3042C27.5981 16.404 28.0277 16.778 28.4525 17.1322C28.8725 17.4863 29.5096 18.0399 29.8715 18.3591C30.2336 18.6733 30.7403 19.1072 31.0008 19.3167C31.2568 19.5262 31.4787 19.7257 31.4933 19.7506C31.5077 19.7756 31.5077 19.8454 31.4933 19.9002C31.4691 20 31.4304 20 27.9459 20C26.0103 20 24.4224 19.985 24.4224 19.9601C24.4224 19.9401 24.2776 19.8953 24.099 19.8604C23.9156 19.8254 23.6212 19.7207 23.433 19.6309C23.2496 19.5412 22.9551 19.3516 22.7814 19.207C22.6077 19.0623 22.1009 18.6035 21.6472 18.1845C21.1983 17.7656 20.3682 16.9975 19.8131 16.4788C19.2532 15.9601 18.0707 14.8529 17.1875 14.015C16.2994 13.1771 15.4789 12.419 15.3534 12.3292C15.199 12.2145 15.0783 12.1696 14.9528 12.1696C14.8515 12.1696 14.7115 12.2095 14.6391 12.2544C14.5619 12.2993 14.4267 12.404 14.335 12.4888C14.2433 12.5686 13.5387 13.2668 12.7664 14.0399C11.999 14.808 10.9999 15.8005 10.5462 16.2394C10.0974 16.6783 9.44579 17.3067 9.10795 17.6359C8.76525 17.9601 8.25848 18.4489 7.97371 18.7182C7.68896 18.9875 7.31731 19.3017 7.14357 19.4214C6.96981 19.5461 6.66091 19.7007 6.45821 19.7706C6.25067 19.8404 6.03829 19.9002 5.9852 19.9002C5.93211 19.9002 5.88867 19.9252 5.88867 19.9501C5.88867 19.985 4.87512 20 0.000353413 20V19.8354C-0.00447309 19.7107 0.0389653 19.6359 0.203066 19.4813C0.318901 19.3716 0.767765 18.9476 1.20698 18.5337C1.64136 18.1197 2.55357 17.2419 3.23411 16.5836C3.90981 15.9302 4.80272 15.0623 5.21296 14.6633C5.62323 14.2644 6.28445 13.6159 6.68504 13.217C7.08565 12.818 7.58277 12.3242 7.79515 12.1197C8.00749 11.9152 8.44189 11.4913 8.76043 11.1721C9.07899 10.8579 9.87053 10.0698 10.5221 9.42143C11.1737 8.76807 11.7915 8.16959 11.8977 8.07981C12.0038 7.99501 12.1679 7.90523 12.2597 7.8803C12.361 7.85039 14.7067 7.83041 18.148 7.83041C23.7081 7.83041 23.8722 7.82543 24.0604 7.73066C24.1666 7.6808 24.3934 7.50623 24.5624 7.34664C24.7361 7.18703 25.1898 6.69328 25.5759 6.24937C25.9669 5.80548 26.3192 5.37656 26.4495 5.13716H19.7793C13.5628 5.13218 13.0898 5.12719 12.9257 5.04738C12.8292 5.00251 12.4479 4.65835 12.0811 4.28928C11.7142 3.92019 10.6476 2.84289 9.71125 1.89526C8.74112 0.912719 8.01232 0.134663 8.01232 0.0847882C8.01232 0.00498752 8.51912 0 18.0177 0ZM5.72459 4.13964C5.768 4.13964 5.82592 4.2843 5.89349 4.54862C5.95141 4.77804 6.06243 5.13218 6.13965 5.33667C6.21688 5.54116 6.37616 5.90025 6.49197 6.13466C6.60781 6.36909 6.81536 6.70824 6.95051 6.89276C7.08083 7.08229 7.26421 7.28678 7.35109 7.35163C7.43315 7.42143 7.62621 7.53118 7.77101 7.59601C7.91581 7.66584 8.29709 7.79052 8.61565 7.87532C8.93419 7.9651 9.26723 8.05488 9.35411 8.08479C9.44096 8.10972 9.50853 8.1646 9.50853 8.20449C9.50853 8.24438 9.46992 8.27931 9.42651 8.27931C9.37824 8.27931 9.10312 8.33416 8.80869 8.40399C8.51912 8.4738 8.07024 8.59353 7.81928 8.67829C7.56829 8.7581 7.24491 8.90275 7.10979 9.00251C6.96981 9.09725 6.76227 9.29675 6.65125 9.43642C6.54507 9.58105 6.36168 9.90025 6.24584 10.1496C6.13483 10.399 5.99485 10.7431 5.93693 10.9227C5.87901 11.1022 5.78248 11.4364 5.71976 11.6708C5.66184 11.9052 5.59427 12.0998 5.57013 12.1097C5.546 12.1147 5.4736 11.8454 5.41085 11.5112C5.34811 11.1721 5.2564 10.783 5.21296 10.6484C5.16952 10.5087 5.07299 10.2793 5.00059 10.1347C4.93304 9.99501 4.73032 9.72567 4.55173 9.53617C4.35867 9.34165 4.11253 9.14215 3.95808 9.06733C3.81328 8.99251 3.48509 8.8778 3.23411 8.80799C2.98312 8.74314 2.61631 8.65835 2.42325 8.61846C2.12884 8.56358 2.07574 8.53865 2.07574 8.45386C2.07574 8.36909 2.16745 8.32917 2.71285 8.17457C3.06517 8.07482 3.50923 7.93016 3.69261 7.85537C3.88085 7.77556 4.12701 7.6459 4.24768 7.5611C4.36832 7.47631 4.53243 7.32669 4.61931 7.23193C4.70619 7.13716 4.84133 6.93267 4.91856 6.78303C4.99579 6.63342 5.11643 6.3541 5.184 6.15961C5.25157 5.9651 5.35776 5.57606 5.42533 5.28678C5.48808 4.99749 5.56531 4.62344 5.59909 4.44887C5.63771 4.24937 5.68115 4.13964 5.72459 4.13964Z" fill="white"/>
</svg>
