<svg width="1171" height="703" viewBox="0 0 1171 703" fill="none" xmlns="http://www.w3.org/2000/svg">
<g style="mix-blend-mode:plus-lighter" filter="url(#filter0_f_808_17294)">
<path d="M535.597 569.527C535.597 639.738 563.488 707.073 613.134 756.72C662.781 806.367 730.116 834.258 800.327 834.258C870.538 834.258 937.873 806.367 987.519 756.72C1037.17 707.073 1065.06 639.738 1065.06 569.527L800.327 569.527L535.597 569.527Z" fill="url(#paint0_linear_808_17294)"/>
<path d="M557.929 569.528C557.929 633.816 583.467 695.47 628.926 740.929C674.384 786.387 736.039 811.926 800.327 811.926C864.615 811.926 926.27 786.387 971.728 740.929C1017.19 695.471 1042.72 633.816 1042.72 569.528L800.327 569.528L557.929 569.528Z" fill="url(#paint1_linear_808_17294)"/>
<path d="M577.47 569.527C577.469 628.633 600.949 685.317 642.743 727.111C684.537 768.905 741.221 792.385 800.327 792.385C859.432 792.385 916.117 768.905 957.911 727.111C999.705 685.317 1023.18 628.633 1023.18 569.527L800.327 569.527L577.47 569.527Z" fill="url(#paint2_linear_808_17294)"/>
<path d="M635.161 569.528C635.161 613.332 652.562 655.343 683.537 686.317C714.512 717.292 756.522 734.693 800.327 734.693C844.131 734.693 886.142 717.292 917.117 686.317C948.091 655.343 965.492 613.332 965.492 569.528L800.327 569.528L635.161 569.528Z" fill="white"/>
</g>
<g opacity="0.47" filter="url(#filter1_f_808_17294)">
<g filter="url(#filter2_f_808_17294)" style="mix-blend-mode:hard-light">
<path d="M800.192 733.397C917.411 733.397 1012.44 638.372 1012.44 521.152C858.237 593.269 753.702 596.227 587.946 521.152C587.946 638.372 682.972 733.397 800.192 733.397Z" fill="url(#paint3_linear_808_17294)"/>
</g>
<foreignObject x="484" y="484" width="632.384" height="353.345"><div xmlns="http://www.w3.org/1999/xhtml" style="backdrop-filter:blur(8px);clip-path:url(#bgblur_0_808_17294_clip_path);height:100%;width:100%"></div></foreignObject><g data-figma-bg-blur-radius="16" style="mix-blend-mode:color-dodge">
<path d="M500 660.672C500 571.935 634.401 500 800.192 500C965.984 500 1100.38 571.935 1100.38 660.672C1100.38 749.409 965.983 821.345 800.192 821.345C634.4 821.345 500 749.409 500 660.672Z" fill="url(#paint4_radial_808_17294)" fill-opacity="0.3"/>
</g>
<g filter="url(#filter4_f_808_17294)">
<path d="M800.192 733.397C917.411 733.397 1012.44 638.372 1012.44 521.152C858.237 593.269 753.702 596.227 587.946 521.152C587.946 638.372 682.972 733.397 800.192 733.397Z" fill="url(#paint5_linear_808_17294)"/>
</g>
</g>
<g style="mix-blend-mode:plus-lighter" filter="url(#filter5_f_808_17294)">
<path d="M535.802 569.527C535.802 639.738 563.693 707.073 613.34 756.72C662.986 806.367 730.322 834.258 800.532 834.258C870.743 834.258 938.078 806.367 987.725 756.72C1037.37 707.073 1065.26 639.738 1065.26 569.527L800.532 569.527L535.802 569.527Z" fill="url(#paint6_linear_808_17294)"/>
<path d="M558.134 569.528C558.134 633.816 583.673 695.47 629.131 740.929C674.59 786.387 736.244 811.926 800.532 811.926C864.82 811.926 926.475 786.387 971.934 740.929C1017.39 695.471 1042.93 633.816 1042.93 569.528L800.532 569.528L558.134 569.528Z" fill="url(#paint7_linear_808_17294)"/>
<path d="M577.675 569.527C577.675 628.633 601.155 685.317 642.949 727.111C684.743 768.905 741.427 792.385 800.533 792.385C859.638 792.385 916.323 768.905 958.116 727.111C999.91 685.317 1023.39 628.633 1023.39 569.527L800.533 569.527L577.675 569.527Z" fill="url(#paint8_linear_808_17294)"/>
<path d="M635.367 600.853C635.367 644.657 652.768 686.668 683.743 717.643C714.717 748.617 756.728 766.019 800.533 766.019C844.337 766.019 886.348 748.617 917.322 717.643C948.297 686.668 965.698 644.657 965.698 600.853L800.533 600.853L635.367 600.853Z" fill="white"/>
</g>
<g style="mix-blend-mode:hard-light">
<g style="mix-blend-mode:plus-lighter" filter="url(#filter6_f_808_17294)">
<path d="M857.213 629.066C857.213 699.277 885.104 766.612 934.75 816.259C984.397 865.906 1051.73 893.797 1121.94 893.797C1192.15 893.797 1259.49 865.906 1309.14 816.259C1358.78 766.613 1386.67 699.277 1386.67 629.066L1121.94 629.066L857.213 629.066Z" fill="url(#paint9_linear_808_17294)"/>
<path d="M879.545 629.067C879.545 693.355 905.083 755.01 950.542 800.468C996 845.926 1057.66 871.465 1121.94 871.465C1186.23 871.465 1247.89 845.927 1293.34 800.468C1338.8 755.01 1364.34 693.355 1364.34 629.067L1121.94 629.067L879.545 629.067Z" fill="url(#paint10_linear_808_17294)"/>
<path d="M899.085 629.066C899.085 688.172 922.565 744.856 964.359 786.65C1006.15 828.444 1062.84 851.924 1121.94 851.924C1181.05 851.924 1237.73 828.444 1279.53 786.65C1321.32 744.857 1344.8 688.172 1344.8 629.066L1121.94 629.066L899.085 629.066Z" fill="url(#paint11_linear_808_17294)"/>
<path d="M956.777 629.067C956.777 672.871 974.179 714.882 1005.15 745.856C1036.13 776.831 1078.14 794.232 1121.94 794.232C1165.75 794.232 1207.76 776.831 1238.73 745.856C1269.71 714.882 1287.11 672.871 1287.11 629.067L1121.94 629.067L956.777 629.067Z" fill="white"/>
</g>
<g opacity="0.47" filter="url(#filter7_f_808_17294)">
<g filter="url(#filter8_f_808_17294)" style="mix-blend-mode:hard-light">
<path d="M1121.81 792.937C1239.03 792.937 1334.05 697.911 1334.05 580.691C1179.85 652.808 1075.32 655.766 909.563 580.691C909.563 697.911 1004.59 792.936 1121.81 792.937Z" fill="url(#paint12_linear_808_17294)"/>
</g>
<foreignObject x="805.616" y="543.539" width="632.384" height="353.345"><div xmlns="http://www.w3.org/1999/xhtml" style="backdrop-filter:blur(8px);clip-path:url(#bgblur_1_808_17294_clip_path);height:100%;width:100%"></div></foreignObject><g data-figma-bg-blur-radius="16" style="mix-blend-mode:color-dodge">
<path d="M821.616 720.211C821.616 631.474 956.016 559.539 1121.81 559.539C1287.6 559.539 1422 631.474 1422 720.211C1422 808.948 1287.6 880.884 1121.81 880.884C956.016 880.884 821.616 808.948 821.616 720.211Z" fill="url(#paint13_radial_808_17294)" fill-opacity="0.3"/>
</g>
<g filter="url(#filter10_f_808_17294)">
<path d="M1121.81 792.937C1239.03 792.937 1334.05 697.911 1334.05 580.691C1179.85 652.808 1075.32 655.766 909.563 580.691C909.563 697.911 1004.59 792.936 1121.81 792.937Z" fill="url(#paint14_linear_808_17294)"/>
</g>
</g>
<g style="mix-blend-mode:plus-lighter" filter="url(#filter11_f_808_17294)">
<path d="M857.418 629.066C857.418 699.277 885.309 766.612 934.956 816.259C984.602 865.906 1051.94 893.797 1122.15 893.797C1192.36 893.797 1259.69 865.906 1309.34 816.259C1358.99 766.613 1386.88 699.277 1386.88 629.066L1122.15 629.066L857.418 629.066Z" fill="url(#paint15_linear_808_17294)"/>
<path d="M879.75 629.067C879.75 693.355 905.289 755.01 950.747 800.468C996.206 845.926 1057.86 871.465 1122.15 871.465C1186.44 871.465 1248.09 845.927 1293.55 800.468C1339.01 755.01 1364.55 693.355 1364.55 629.067L1122.15 629.067L879.75 629.067Z" fill="url(#paint16_linear_808_17294)"/>
<path d="M899.291 629.066C899.291 688.172 922.771 744.856 964.564 786.65C1006.36 828.444 1063.04 851.924 1122.15 851.924C1181.25 851.924 1237.94 828.444 1279.73 786.65C1321.53 744.857 1345.01 688.172 1345.01 629.066L1122.15 629.066L899.291 629.066Z" fill="url(#paint17_linear_808_17294)"/>
<path d="M956.983 660.392C956.983 704.197 974.384 746.207 1005.36 777.182C1036.33 808.156 1078.34 825.558 1122.15 825.558C1165.95 825.558 1207.96 808.156 1238.94 777.182C1269.91 746.207 1287.31 704.197 1287.31 660.392L1122.15 660.392L956.983 660.392Z" fill="white"/>
</g>
</g>
<defs>
<filter id="filter0_f_808_17294" x="335.597" y="369.527" width="929.46" height="664.73" filterUnits="userSpaceOnUse" color-interpolation-filters="sRGB">
<feFlood flood-opacity="0" result="BackgroundImageFix"/>
<feBlend mode="normal" in="SourceGraphic" in2="BackgroundImageFix" result="shape"/>
<feGaussianBlur stdDeviation="100" result="effect1_foregroundBlur_808_17294"/>
</filter>
<filter id="filter1_f_808_17294" x="0" y="0" width="1600.38" height="1321.34" filterUnits="userSpaceOnUse" color-interpolation-filters="sRGB">
<feFlood flood-opacity="0" result="BackgroundImageFix"/>
<feBlend mode="normal" in="SourceGraphic" in2="BackgroundImageFix" result="shape"/>
<feGaussianBlur stdDeviation="250" result="effect1_foregroundBlur_808_17294"/>
</filter>
<filter id="filter2_f_808_17294" x="459.947" y="393.152" width="680.49" height="468.246" filterUnits="userSpaceOnUse" color-interpolation-filters="sRGB">
<feFlood flood-opacity="0" result="BackgroundImageFix"/>
<feBlend mode="normal" in="SourceGraphic" in2="BackgroundImageFix" result="shape"/>
<feGaussianBlur stdDeviation="64" result="effect1_foregroundBlur_808_17294"/>
</filter>
<clipPath id="bgblur_0_808_17294_clip_path" transform="translate(-484 -484)"><path d="M500 660.672C500 571.935 634.401 500 800.192 500C965.984 500 1100.38 571.935 1100.38 660.672C1100.38 749.409 965.983 821.345 800.192 821.345C634.4 821.345 500 749.409 500 660.672Z"/>
</clipPath><filter id="filter4_f_808_17294" x="459.947" y="393.152" width="680.49" height="468.246" filterUnits="userSpaceOnUse" color-interpolation-filters="sRGB">
<feFlood flood-opacity="0" result="BackgroundImageFix"/>
<feBlend mode="normal" in="SourceGraphic" in2="BackgroundImageFix" result="shape"/>
<feGaussianBlur stdDeviation="64" result="effect1_foregroundBlur_808_17294"/>
</filter>
<filter id="filter5_f_808_17294" x="335.802" y="369.527" width="929.46" height="664.73" filterUnits="userSpaceOnUse" color-interpolation-filters="sRGB">
<feFlood flood-opacity="0" result="BackgroundImageFix"/>
<feBlend mode="normal" in="SourceGraphic" in2="BackgroundImageFix" result="shape"/>
<feGaussianBlur stdDeviation="100" result="effect1_foregroundBlur_808_17294"/>
</filter>
<filter id="filter6_f_808_17294" x="657.213" y="429.066" width="929.46" height="664.73" filterUnits="userSpaceOnUse" color-interpolation-filters="sRGB">
<feFlood flood-opacity="0" result="BackgroundImageFix"/>
<feBlend mode="normal" in="SourceGraphic" in2="BackgroundImageFix" result="shape"/>
<feGaussianBlur stdDeviation="100" result="effect1_foregroundBlur_808_17294"/>
</filter>
<filter id="filter7_f_808_17294" x="321.616" y="59.5391" width="1600.38" height="1321.34" filterUnits="userSpaceOnUse" color-interpolation-filters="sRGB">
<feFlood flood-opacity="0" result="BackgroundImageFix"/>
<feBlend mode="normal" in="SourceGraphic" in2="BackgroundImageFix" result="shape"/>
<feGaussianBlur stdDeviation="250" result="effect1_foregroundBlur_808_17294"/>
</filter>
<filter id="filter8_f_808_17294" x="781.563" y="452.691" width="680.49" height="468.246" filterUnits="userSpaceOnUse" color-interpolation-filters="sRGB">
<feFlood flood-opacity="0" result="BackgroundImageFix"/>
<feBlend mode="normal" in="SourceGraphic" in2="BackgroundImageFix" result="shape"/>
<feGaussianBlur stdDeviation="64" result="effect1_foregroundBlur_808_17294"/>
</filter>
<clipPath id="bgblur_1_808_17294_clip_path" transform="translate(-805.616 -543.539)"><path d="M821.616 720.211C821.616 631.474 956.016 559.539 1121.81 559.539C1287.6 559.539 1422 631.474 1422 720.211C1422 808.948 1287.6 880.884 1121.81 880.884C956.016 880.884 821.616 808.948 821.616 720.211Z"/>
</clipPath><filter id="filter10_f_808_17294" x="781.563" y="452.691" width="680.49" height="468.246" filterUnits="userSpaceOnUse" color-interpolation-filters="sRGB">
<feFlood flood-opacity="0" result="BackgroundImageFix"/>
<feBlend mode="normal" in="SourceGraphic" in2="BackgroundImageFix" result="shape"/>
<feGaussianBlur stdDeviation="64" result="effect1_foregroundBlur_808_17294"/>
</filter>
<filter id="filter11_f_808_17294" x="657.418" y="429.066" width="929.46" height="664.73" filterUnits="userSpaceOnUse" color-interpolation-filters="sRGB">
<feFlood flood-opacity="0" result="BackgroundImageFix"/>
<feBlend mode="normal" in="SourceGraphic" in2="BackgroundImageFix" result="shape"/>
<feGaussianBlur stdDeviation="100" result="effect1_foregroundBlur_808_17294"/>
</filter>
<linearGradient id="paint0_linear_808_17294" x1="535.597" y1="569.527" x2="1065.06" y2="569.527" gradientUnits="userSpaceOnUse">
<stop stop-color="#1D9FA3"/>
<stop offset="1" stop-color="#652DA1"/>
</linearGradient>
<linearGradient id="paint1_linear_808_17294" x1="1042.72" y1="569.528" x2="557.929" y2="569.528" gradientUnits="userSpaceOnUse">
<stop stop-color="#35E0C4"/>
<stop offset="1" stop-color="#9759DA"/>
</linearGradient>
<linearGradient id="paint2_linear_808_17294" x1="577.47" y1="569.527" x2="1023.18" y2="569.527" gradientUnits="userSpaceOnUse">
<stop stop-color="#1DF9C5"/>
<stop offset="1" stop-color="#C258FF"/>
</linearGradient>
<linearGradient id="paint3_linear_808_17294" x1="800.192" y1="733.397" x2="800.192" y2="521.152" gradientUnits="userSpaceOnUse">
<stop stop-color="#1DF9C5"/>
<stop offset="1" stop-color="#C258FF"/>
</linearGradient>
<radialGradient id="paint4_radial_808_17294" cx="0" cy="0" r="1" gradientUnits="userSpaceOnUse" gradientTransform="translate(800.192 821.345) rotate(-90) scale(600.385 600.384)">
<stop stop-color="#262425"/>
<stop offset="1" stop-color="#0B0B0B"/>
</radialGradient>
<linearGradient id="paint5_linear_808_17294" x1="800.192" y1="733.397" x2="800.192" y2="521.152" gradientUnits="userSpaceOnUse">
<stop stop-color="#1DF9C5"/>
<stop offset="1" stop-color="#BD13F5"/>
</linearGradient>
<linearGradient id="paint6_linear_808_17294" x1="535.802" y1="569.527" x2="1065.26" y2="569.527" gradientUnits="userSpaceOnUse">
<stop stop-color="#1D9FA3"/>
<stop offset="1" stop-color="#652DA1"/>
</linearGradient>
<linearGradient id="paint7_linear_808_17294" x1="1042.93" y1="569.528" x2="558.134" y2="569.528" gradientUnits="userSpaceOnUse">
<stop stop-color="#35E0C4"/>
<stop offset="1" stop-color="#9759DA"/>
</linearGradient>
<linearGradient id="paint8_linear_808_17294" x1="577.675" y1="569.527" x2="1023.39" y2="569.527" gradientUnits="userSpaceOnUse">
<stop stop-color="#20D7AB"/>
<stop offset="1" stop-color="#C258FF"/>
</linearGradient>
<linearGradient id="paint9_linear_808_17294" x1="857.213" y1="629.066" x2="1386.67" y2="629.066" gradientUnits="userSpaceOnUse">
<stop stop-color="#1D9FA3"/>
<stop offset="1" stop-color="#652DA1"/>
</linearGradient>
<linearGradient id="paint10_linear_808_17294" x1="1364.34" y1="629.067" x2="879.545" y2="629.067" gradientUnits="userSpaceOnUse">
<stop stop-color="#35E0C4"/>
<stop offset="1" stop-color="#9759DA"/>
</linearGradient>
<linearGradient id="paint11_linear_808_17294" x1="899.085" y1="629.066" x2="1344.8" y2="629.066" gradientUnits="userSpaceOnUse">
<stop stop-color="#1DF9C5"/>
<stop offset="1" stop-color="#C258FF"/>
</linearGradient>
<linearGradient id="paint12_linear_808_17294" x1="1121.81" y1="792.937" x2="1121.81" y2="580.691" gradientUnits="userSpaceOnUse">
<stop stop-color="#1DF9C5"/>
<stop offset="1" stop-color="#C258FF"/>
</linearGradient>
<radialGradient id="paint13_radial_808_17294" cx="0" cy="0" r="1" gradientUnits="userSpaceOnUse" gradientTransform="translate(1121.81 880.884) rotate(-90) scale(600.385 600.384)">
<stop stop-color="#262425"/>
<stop offset="1" stop-color="#0B0B0B"/>
</radialGradient>
<linearGradient id="paint14_linear_808_17294" x1="1121.81" y1="792.937" x2="1121.81" y2="580.691" gradientUnits="userSpaceOnUse">
<stop stop-color="#1DF9C5"/>
<stop offset="1" stop-color="#BD13F5"/>
</linearGradient>
<linearGradient id="paint15_linear_808_17294" x1="857.418" y1="629.066" x2="1386.88" y2="629.066" gradientUnits="userSpaceOnUse">
<stop stop-color="#1D9FA3"/>
<stop offset="1" stop-color="#652DA1"/>
</linearGradient>
<linearGradient id="paint16_linear_808_17294" x1="1364.55" y1="629.067" x2="879.75" y2="629.067" gradientUnits="userSpaceOnUse">
<stop stop-color="#35E0C4"/>
<stop offset="1" stop-color="#9759DA"/>
</linearGradient>
<linearGradient id="paint17_linear_808_17294" x1="899.291" y1="629.066" x2="1345.01" y2="629.066" gradientUnits="userSpaceOnUse">
<stop stop-color="#20D7AB"/>
<stop offset="1" stop-color="#C258FF"/>
</linearGradient>
</defs>
</svg>
