<svg width="48" height="48" viewBox="0 0 48 48" fill="none" xmlns="http://www.w3.org/2000/svg">
<foreignObject x="-12" y="-12" width="72" height="72"><div xmlns="http://www.w3.org/1999/xhtml" style="backdrop-filter:blur(6px);clip-path:url(#bgblur_0_1642_1206_clip_path);height:100%;width:100%"></div></foreignObject><circle data-figma-bg-blur-radius="12" cx="24" cy="24" r="23.5" fill="#101012" stroke="url(#paint0_linear_1642_1206)"/>
<path d="M28.969 28.9273C29.2235 29.163 29.5232 29.3446 29.85 29.461C30.1768 29.5773 30.5238 29.6261 30.87 29.6043C31.4186 29.6183 31.9566 29.4514 32.401 29.1293C32.763 28.8943 33.037 28.5453 33.18 28.1393H35.765C35.4896 29.2971 34.8173 30.3217 33.865 31.0353C32.9508 31.642 31.8706 31.9495 30.774 31.9153C29.9913 31.9255 29.2146 31.7783 28.49 31.4823C27.8342 31.2091 27.2462 30.7958 26.767 30.2713C26.2898 29.7219 25.9231 29.0856 25.687 28.3973C25.4223 27.6277 25.2927 26.8181 25.304 26.0043C25.299 25.2043 25.433 24.4093 25.7 23.6553C26.0601 22.5951 26.746 21.6757 27.6597 21.0285C28.5735 20.3813 29.6683 20.0393 30.788 20.0513C31.615 20.0342 32.4327 20.2279 33.164 20.6143C33.825 20.9763 34.395 21.4843 34.832 22.0993C35.2784 22.7443 35.5984 23.4681 35.775 24.2323C35.969 25.0533 36.038 25.8983 35.98 26.7403H28.281C28.218 27.5303 28.465 28.3143 28.969 28.9273ZM18.947 16.0843C19.5953 16.0726 20.2426 16.1391 20.875 16.2823C21.4077 16.3984 21.9134 16.6149 22.365 16.9203C22.783 17.2233 23.113 17.6313 23.323 18.1023C23.564 18.6813 23.68 19.3053 23.664 19.9323C23.6919 20.6215 23.5159 21.3037 23.158 21.8933C22.7822 22.45 22.2628 22.8946 21.655 23.1803C22.4802 23.4026 23.199 23.9122 23.682 24.6173C24.146 25.3643 24.379 26.2323 24.352 27.1113C24.3679 27.8121 24.2232 28.5071 23.929 29.1433C23.6574 29.699 23.2591 30.183 22.766 30.5563C22.2593 30.9263 21.6888 31.1999 21.083 31.3633C20.4552 31.5373 19.8065 31.6244 19.155 31.6223H12V16.0843H18.947ZM18.712 28.9843C19.02 28.9883 19.328 28.9553 19.628 28.8853C19.9023 28.825 20.1624 28.7123 20.394 28.5533C20.622 28.3953 20.805 28.1823 20.928 27.9343C21.07 27.6173 21.136 27.2713 21.119 26.9253C21.1499 26.6094 21.1082 26.2906 20.9969 25.9934C20.8856 25.6961 20.7078 25.4283 20.477 25.2103C19.9874 24.8502 19.3878 24.6717 18.781 24.7053H15.241V28.9843H18.712ZM32.347 23.0173C32.1316 22.8019 31.8725 22.6351 31.5872 22.5283C31.3018 22.4215 30.9969 22.3772 30.693 22.3983C30.2895 22.3827 29.8888 22.4719 29.53 22.6573C29.2457 22.8136 28.995 23.0243 28.792 23.2773C28.6112 23.514 28.4768 23.7827 28.396 24.0693C28.322 24.3083 28.276 24.5543 28.259 24.8033H33.028C32.9862 24.1536 32.7496 23.5316 32.349 23.0183L32.347 23.0173ZM18.534 22.3693C19.0437 22.3902 19.5453 22.2375 19.957 21.9363C20.356 21.5813 20.564 21.0563 20.517 20.5233C20.53 20.2164 20.4689 19.9108 20.339 19.6323C20.2282 19.4111 20.0564 19.2262 19.844 19.0993C19.6286 18.9597 19.3864 18.8664 19.133 18.8253C18.858 18.7716 18.5781 18.7471 18.298 18.7523H15.241V22.3833H18.534V22.3693ZM33.62 17.1223H27.644V18.6493H33.62V17.1223Z" fill="white"/>
<defs>
<clipPath id="bgblur_0_1642_1206_clip_path" transform="translate(12 12)"><circle cx="24" cy="24" r="23.5"/>
</clipPath><linearGradient id="paint0_linear_1642_1206" x1="24" y1="0" x2="24" y2="48" gradientUnits="userSpaceOnUse">
<stop stop-color="#1E1E20"/>
<stop offset="0.5" stop-color="#101012"/>
<stop offset="1" stop-color="#1E1E20"/>
</linearGradient>
</defs>
</svg>
